<svg width="250" height="250" viewBox="0 0 250 250" fill="none" xmlns="http://www.w3.org/2000/svg">
<rect width="250" height="250" rx="10" fill="#D9D9D9"/>
<g filter="url(#filter0_d_1_5)">
<path d="M13.0508 195V57.53H20.0408V195H13.0508ZM41.0108 195V57.53H61.9808V195H41.0108ZM68.9708 195V57.53H75.9608V195H68.9708ZM82.9508 195V57.53H89.9408V195H82.9508ZM96.9308 195V57.53H117.901V195H96.9308ZM125 195V57.53H145.97V195H125ZM152.96 195V57.53H159.95V195H152.96ZM166.94 195V57.53H187.91V195H166.94ZM208.88 195V57.53H215.87V195H208.88ZM222.86 195V57.53H229.85V195H222.86Z" fill="#010000"/>
</g>
<defs>
<filter id="filter0_d_1_5" x="9.05078" y="57.53" width="224.799" height="145.47" filterUnits="userSpaceOnUse" color-interpolation-filters="sRGB">
<feFlood flood-opacity="0" result="BackgroundImageFix"/>
<feColorMatrix in="SourceAlpha" type="matrix" values="0 0 0 0 0 0 0 0 0 0 0 0 0 0 0 0 0 0 127 0" result="hardAlpha"/>
<feOffset dy="4"/>
<feGaussianBlur stdDeviation="2"/>
<feComposite in2="hardAlpha" operator="out"/>
<feColorMatrix type="matrix" values="0 0 0 0 0 0 0 0 0 0 0 0 0 0 0 0 0 0 0.25 0"/>
<feBlend mode="normal" in2="BackgroundImageFix" result="effect1_dropShadow_1_5"/>
<feBlend mode="normal" in="SourceGraphic" in2="effect1_dropShadow_1_5" result="shape"/>
</filter>
</defs>
</svg>
